<svg width="65" height="65" viewBox="0 0 65 65" fill="none" xmlns="http://www.w3.org/2000/svg">
  <path
    d="M20.1178 47.8237H37.6176M20.1178 37.8238H22.6178M20.1178 27.8239H27.6177M20.1178 7.82413H43.8676L55.1174 19.074V50.3237M37.619 15.324V23.8239C37.619 24.2217 37.777 24.6032 38.0583 24.8845C38.3396 25.1658 38.7212 25.3239 39.119 25.3239H47.6189M10.1174 54.0736V19.0739C10.1174 18.0794 10.5125 17.1256 11.2158 16.4223C11.919 15.7191 12.8728 15.324 13.8674 15.324H38.2471C38.6448 15.3243 39.0261 15.4826 39.3071 15.764L47.177 23.6339C47.3169 23.7736 47.4279 23.9397 47.5034 24.1224C47.5789 24.3052 47.6175 24.5011 47.617 24.6989V54.0736C47.617 55.0681 47.2219 56.0219 46.5187 56.7252C45.8154 57.4284 44.8616 57.8235 43.8671 57.8235H13.8674C12.8728 57.8235 11.919 57.4284 11.2158 56.7252C10.5125 56.0219 10.1174 55.0681 10.1174 54.0736Z"
    stroke="url(#paint0_linear_609_2)" stroke-width="4" stroke-linecap="round" stroke-linejoin="round" />
  <defs>
    <linearGradient id="paint0_linear_609_2" x1="32.6175" y1="6.98563" x2="32.6175" y2="57.8235"
      gradientUnits="userSpaceOnUse">
      <stop stop-color="#E4B57D" />
      <stop offset="1" stop-color="#E24514" />
    </linearGradient>
  </defs>
</svg>